<svg width="177" height="164" viewBox="0 0 177 164" fill="none" xmlns="http://www.w3.org/2000/svg">
<path d="M152.218 28.4684C155.082 31.8729 156.266 36.5785 155.762 42.3643C155.258 48.1584 153.065 54.9211 149.322 62.2344C141.837 76.8554 128.294 93.4067 110.429 108.358C92.5641 123.309 73.8697 133.738 58.1336 138.55C50.2625 140.958 43.2044 141.937 37.3958 141.426C31.5956 140.916 27.1549 138.936 24.2907 135.532C21.4265 132.127 20.2427 127.422 20.7463 121.636C21.2507 115.842 23.4433 109.079 27.1867 101.766C34.6708 87.1447 48.2147 70.5934 66.0794 55.6422C83.9442 40.6911 102.639 30.2618 118.375 25.4496C126.246 23.0425 133.304 22.0632 139.112 22.574C144.913 23.084 149.353 25.0638 152.218 28.4684Z" stroke="white" stroke-width="3"/>
<ellipse cx="88" cy="124.947" rx="6" ry="5.98434" fill="white"/>
</svg>
