<svg width="116" height="116" viewBox="0 0 116 116" fill="none" xmlns="http://www.w3.org/2000/svg">
<path d="M16.1667 6C16.1667 8.94552 18.5545 11.3333 21.5 11.3333C24.4455 11.3333 26.8333 8.94552 26.8333 6C26.8333 3.05448 24.4455 0.666667 21.5 0.666667C18.5545 0.666667 16.1667 3.05448 16.1667 6ZM21.5 7H100V5H21.5V7ZM109 16V63H111V16H109ZM100 7C104.971 7 109 11.0294 109 16H111C111 9.92487 106.075 5 100 5V7Z" fill="#2F8FC6"/>
<path d="M115.333 89C115.333 86.0545 112.946 83.6667 110 83.6667C107.054 83.6667 104.667 86.0545 104.667 89C104.667 91.9455 107.054 94.3333 110 94.3333C112.946 94.3333 115.333 91.9455 115.333 89ZM0.999993 105L1.99999 105L0.999993 105ZM100 114L11 114L11 116L100 116L100 114ZM1.99999 105L1.99999 24L-7.30332e-06 24L-6.75517e-06 105L1.99999 105ZM111 105L111 89L109 89L109 105L111 105ZM11 114C6.02943 114 1.99999 109.971 1.99999 105L-6.75517e-06 105C-7.28627e-06 111.075 4.92487 116 11 116L11 114ZM100 116C106.075 116 111 111.075 111 105L109 105C109 109.971 104.971 114 100 114L100 116Z" fill="#2F8FC6"/>
</svg>
