<svg width="116" height="116" viewBox="0 0 116 116" fill="none" xmlns="http://www.w3.org/2000/svg">
<path d="M16.1667 110C16.1667 107.054 18.5545 104.667 21.5 104.667C24.4455 104.667 26.8333 107.054 26.8333 110C26.8333 112.946 24.4455 115.333 21.5 115.333C18.5545 115.333 16.1667 112.946 16.1667 110ZM21.5 109H100V111H21.5V109ZM109 100V53H111V100H109ZM100 109C104.971 109 109 104.971 109 100H111C111 106.075 106.075 111 100 111V109Z" fill="#2F8FC6"/>
<path d="M115.333 27C115.333 29.9455 112.946 32.3333 110 32.3333C107.054 32.3333 104.667 29.9455 104.667 27C104.667 24.0545 107.054 21.6667 110 21.6667C112.946 21.6667 115.333 24.0545 115.333 27ZM0.999993 11L1.99999 11L0.999993 11ZM100 2.00001L11 2.00001L11 9.37011e-06L100 7.90758e-06L100 2.00001ZM1.99999 11L1.99999 92L-7.30332e-06 92L-6.75517e-06 11L1.99999 11ZM111 11L111 27L109 27L109 11L111 11ZM11 2.00001C6.02943 2.00001 1.99999 6.02945 1.99999 11L-6.75517e-06 11C-7.28627e-06 4.92488 4.92487 9.48398e-06 11 9.37011e-06L11 2.00001ZM100 7.90758e-06C106.075 7.7937e-06 111 4.92488 111 11L109 11C109 6.02945 104.971 2.00001 100 2.00001L100 7.90758e-06Z" fill="#2F8FC6"/>
</svg>
