<svg width="116" height="116" viewBox="0 0 116 116" fill="none" xmlns="http://www.w3.org/2000/svg">
<path d="M110 16.1667C107.054 16.1667 104.667 18.5545 104.667 21.5C104.667 24.4455 107.054 26.8333 110 26.8333C112.946 26.8333 115.333 24.4455 115.333 21.5C115.333 18.5545 112.946 16.1667 110 16.1667ZM109 21.5L109 100L111 100L111 21.5L109 21.5ZM100 109L53 109L53 111L100 111L100 109ZM109 100C109 104.971 104.971 109 100 109L100 111C106.075 111 111 106.075 111 100L109 100Z" fill="#2F8FC6"/>
<path d="M27 115.333C29.9455 115.333 32.3333 112.946 32.3333 110C32.3333 107.054 29.9455 104.667 27 104.667C24.0545 104.667 21.6667 107.054 21.6667 110C21.6667 112.946 24.0545 115.333 27 115.333ZM11 0.999994L11 1.99999L11 0.999994ZM2.00001 100L2.00001 11L1.36975e-05 11L8.34469e-06 100L2.00001 100ZM11 1.99999L92 2L92 -3.32558e-06L11 -6.31805e-06L11 1.99999ZM11 111L27 111L27 109L11 109L11 111ZM2.00001 11C2.00001 6.02943 6.02945 1.99999 11 1.99999L11 -6.31805e-06C4.92488 -7.11471e-06 1.4077e-05 4.92487 1.36975e-05 11L2.00001 11ZM8.34469e-06 100C7.96526e-06 106.075 4.92488 111 11 111L11 109C6.02945 109 2.00001 104.971 2.00001 100L8.34469e-06 100Z" fill="#2F8FC6"/>
</svg>
