<svg width="116" height="116" viewBox="0 0 116 116" fill="none" xmlns="http://www.w3.org/2000/svg">
<path d="M110 99.8333C107.054 99.8333 104.667 97.4455 104.667 94.5C104.667 91.5545 107.054 89.1667 110 89.1667C112.946 89.1667 115.333 91.5545 115.333 94.5C115.333 97.4455 112.946 99.8333 110 99.8333ZM109 94.5L109 16L111 16L111 94.5L109 94.5ZM100 7L53 7L53 5L100 5L100 7ZM109 16C109 11.0294 104.971 7 100 7L100 5C106.075 5 111 9.92487 111 16L109 16Z" fill="#2F8FC6"/>
<path d="M27 0.666667C29.9455 0.666667 32.3333 3.05448 32.3333 6C32.3333 8.94552 29.9455 11.3333 27 11.3333C24.0545 11.3333 21.6667 8.94552 21.6667 6C21.6667 3.05448 24.0545 0.666667 27 0.666667ZM11 115L11 114L11 115ZM2.00001 16L2.00001 105L8.18955e-06 105L7.78833e-06 16L2.00001 16ZM11 114L92 114L92 116L11 116L11 114ZM11 5L27 5L27 7L11 7L11 5ZM2.00001 105C2.00001 109.971 6.02945 114 11 114L11 116C4.92488 116 8.23097e-06 111.075 8.18955e-06 105L2.00001 105ZM7.78833e-06 16C7.7469e-06 9.92487 4.92488 5 11 5L11 7C6.02945 7 2.00001 11.0294 2.00001 16L7.78833e-06 16Z" fill="#2F8FC6"/>
</svg>
