<svg width="116" height="116" viewBox="0 0 116 116" fill="none" xmlns="http://www.w3.org/2000/svg">
<path d="M99.8333 110C99.8333 107.054 97.4455 104.667 94.5 104.667C91.5545 104.667 89.1667 107.054 89.1667 110C89.1667 112.946 91.5545 115.333 94.5 115.333C97.4455 115.333 99.8333 112.946 99.8333 110ZM94.5 109H16V111H94.5V109ZM7 100V53H5V100H7ZM16 109C11.0294 109 7 104.971 7 100H5C5 106.075 9.92487 111 16 111V109Z" fill="#2F8FC6"/>
<path d="M0.666667 27C0.666666 29.9455 3.05448 32.3333 6 32.3333C8.94552 32.3333 11.3333 29.9455 11.3333 27C11.3333 24.0545 8.94552 21.6667 6 21.6667C3.05448 21.6667 0.666667 24.0545 0.666667 27ZM115 11L114 11L115 11ZM16 2.00001L105 2.00001L105 9.37011e-06L16 7.90758e-06L16 2.00001ZM114 11L114 92L116 92L116 11L114 11ZM5 11L5 27L7 27L7 11L5 11ZM105 2.00001C109.971 2.00001 114 6.02945 114 11L116 11C116 4.92488 111.075 9.48398e-06 105 9.37011e-06L105 2.00001ZM16 7.90758e-06C9.92487 7.7937e-06 5 4.92488 5 11L7 11C7 6.02945 11.0294 2.00001 16 2.00001L16 7.90758e-06Z" fill="#2F8FC6"/>
</svg>
