<svg width="14" height="15" viewBox="0 0 14 15" fill="none" xmlns="http://www.w3.org/2000/svg">
<path d="M4.79327 0.146027C4.66607 0.146027 4.54408 0.196556 4.45414 0.2865C4.36419 0.376444 4.31366 0.498434 4.31366 0.625634C4.31366 0.752833 4.36419 0.874823 4.45414 0.964767C4.54408 1.05471 4.66607 1.10524 4.79327 1.10524H8.94986C9.07706 1.10524 9.19905 1.05471 9.289 0.964767C9.37894 0.874823 9.42947 0.752833 9.42947 0.625634C9.42947 0.498434 9.37894 0.376444 9.289 0.2865C9.19905 0.196556 9.07706 0.146027 8.94986 0.146027H4.79327ZM6.87157 4.30262C6.99877 4.30262 7.12076 4.35315 7.2107 4.44309C7.30064 4.53304 7.35117 4.65503 7.35117 4.78223V8.61908C7.35117 8.74628 7.30064 8.86827 7.2107 8.95822C7.12076 9.04816 6.99877 9.09869 6.87157 9.09869C6.74437 9.09869 6.62238 9.04816 6.53243 8.95822C6.44249 8.86827 6.39196 8.74628 6.39196 8.61908V4.78223C6.39196 4.65503 6.44249 4.53304 6.53243 4.44309C6.62238 4.35315 6.74437 4.30262 6.87157 4.30262ZM6.87157 2.06445C3.33974 2.06445 0.476807 4.92739 0.476807 8.45921C0.476807 11.991 3.33974 14.854 6.87157 14.854C10.4034 14.854 13.2663 11.991 13.2663 8.45921C13.2663 4.92739 10.4034 2.06445 6.87157 2.06445ZM1.43602 8.45921C1.43602 7.01762 2.00869 5.63507 3.02806 4.6157C4.04742 3.59634 5.42997 3.02367 6.87157 3.02367C8.31316 3.02367 9.69571 3.59634 10.7151 4.6157C11.7344 5.63507 12.3071 7.01762 12.3071 8.45921C12.3071 9.90081 11.7344 11.2834 10.7151 12.3027C9.69571 13.3221 8.31316 13.8948 6.87157 13.8948C5.42997 13.8948 4.04742 13.3221 3.02806 12.3027C2.00869 11.2834 1.43602 9.90081 1.43602 8.45921ZM12.1664 2.20514C12.1225 2.15802 12.0696 2.12022 12.0107 2.09401C11.9519 2.0678 11.8884 2.0537 11.824 2.05257C11.7596 2.05143 11.6956 2.06328 11.6359 2.0874C11.5762 2.11152 11.522 2.14742 11.4764 2.19296C11.4309 2.23851 11.395 2.29276 11.3708 2.35248C11.3467 2.4122 11.3349 2.47616 11.336 2.54056C11.3371 2.60496 11.3512 2.66846 11.3775 2.7273C11.4037 2.78613 11.4415 2.83908 11.4886 2.88298L12.4478 3.8422C12.4917 3.88932 12.5447 3.92711 12.6035 3.95333C12.6623 3.97954 12.7258 3.99364 12.7902 3.99477C12.8546 3.99591 12.9186 3.98406 12.9783 3.95994C13.038 3.93582 13.0923 3.89991 13.1378 3.85437C13.1834 3.80883 13.2193 3.75458 13.2434 3.69486C13.2675 3.63514 13.2794 3.57118 13.2782 3.50678C13.2771 3.44238 13.263 3.37887 13.2368 3.32004C13.2106 3.26121 13.1728 3.20826 13.1256 3.16435L12.1664 2.20514Z" fill="#FFFAFA"/>
</svg>
